<svg width="26" height="26" viewBox="0 0 26 26" fill="none" xmlns="http://www.w3.org/2000/svg">
<path d="M12.9999 6.59061C9.45303 6.59061 6.59053 9.45311 6.59053 13C6.59053 16.5469 9.45303 19.4094 12.9999 19.4094C16.5468 19.4094 19.4093 16.5469 19.4093 13C19.4093 9.45311 16.5468 6.59061 12.9999 6.59061ZM12.9999 17.1656C10.7062 17.1656 8.83428 15.2937 8.83428 13C8.83428 10.7062 10.7062 8.83436 12.9999 8.83436C15.2937 8.83436 17.1655 10.7062 17.1655 13C17.1655 15.2937 15.2937 17.1656 12.9999 17.1656ZM19.6718 4.83436C18.8437 4.83436 18.1749 5.50311 18.1749 6.33124C18.1749 7.15936 18.8437 7.82811 19.6718 7.82811C20.4999 7.82811 21.1687 7.16249 21.1687 6.33124C21.1689 6.1346 21.1304 5.93984 21.0552 5.75812C20.9801 5.5764 20.8698 5.41129 20.7308 5.27224C20.5917 5.13319 20.4266 5.02294 20.2449 4.9478C20.0632 4.87267 19.8684 4.83412 19.6718 4.83436ZM25.4937 13C25.4937 11.275 25.5093 9.56561 25.4124 7.84374C25.3155 5.84374 24.8593 4.06874 23.3968 2.60624C21.9312 1.14061 20.1593 0.687489 18.1593 0.590614C16.4343 0.493739 14.7249 0.509364 13.003 0.509364C11.278 0.509364 9.56865 0.493739 7.84678 0.590614C5.84678 0.687489 4.07178 1.14374 2.60928 2.60624C1.14365 4.07186 0.690529 5.84374 0.593654 7.84374C0.496779 9.56874 0.512404 11.2781 0.512404 13C0.512404 14.7219 0.496779 16.4344 0.593654 18.1562C0.690529 20.1562 1.14678 21.9312 2.60928 23.3937C4.0749 24.8594 5.84678 25.3125 7.84678 25.4094C9.57178 25.5062 11.2812 25.4906 13.003 25.4906C14.728 25.4906 16.4374 25.5062 18.1593 25.4094C20.1593 25.3125 21.9343 24.8562 23.3968 23.3937C24.8624 21.9281 25.3155 20.1562 25.4124 18.1562C25.5124 16.4344 25.4937 14.725 25.4937 13ZM22.7437 20.3687C22.5155 20.9375 22.2405 21.3625 21.7999 21.8C21.3593 22.2406 20.9374 22.5156 20.3687 22.7437C18.7249 23.3969 14.8218 23.25 12.9999 23.25C11.178 23.25 7.27178 23.3969 5.62803 22.7469C5.05928 22.5187 4.63428 22.2437 4.19678 21.8031C3.75615 21.3625 3.48115 20.9406 3.25303 20.3719C2.60303 18.725 2.7499 14.8219 2.7499 13C2.7499 11.1781 2.60303 7.27186 3.25303 5.62811C3.48115 5.05936 3.75615 4.63436 4.19678 4.19686C4.6374 3.75936 5.05928 3.48124 5.62803 3.25311C7.27178 2.60311 11.178 2.74999 12.9999 2.74999C14.8218 2.74999 18.728 2.60311 20.3718 3.25311C20.9405 3.48124 21.3655 3.75624 21.803 4.19686C22.2437 4.63749 22.5187 5.05936 22.7468 5.62811C23.3968 7.27186 23.2499 11.1781 23.2499 13C23.2499 14.8219 23.3968 18.725 22.7437 20.3687Z" fill="white"/>
</svg>
